<mxfile host="app.diagrams.net" modified="2021-04-21T01:56:55.664Z" agent="5.0 (Windows NT 6.1; Win64; x64) AppleWebKit/537.36 (KHTML, like Gecko) Chrome/89.0.4389.72 Safari/537.36" etag="MhsZS-MzJyds7akJBg52" version="14.2.9" type="github">
  <diagram id="t4Ar3igG2bWB1md3Jn5b" name="第 1 页">
    <mxGraphModel dx="860" dy="474" grid="0" gridSize="10" guides="1" tooltips="1" connect="1" arrows="1" fold="1" page="0" pageScale="1" pageWidth="827" pageHeight="1169" math="0" shadow="0">
      <root>
        <mxCell id="0" />
        <mxCell id="1" parent="0" />
        <mxCell id="jOJlzJDerxMGV-HSgP7x-3" value="规则引擎" style="shape=umlFrame;whiteSpace=wrap;html=1;" vertex="1" parent="1">
          <mxGeometry x="70" y="820" width="770" height="430" as="geometry" />
        </mxCell>
        <mxCell id="jOJlzJDerxMGV-HSgP7x-1" value="规则设置管理模块" style="html=1;dropTarget=0;" vertex="1" parent="1">
          <mxGeometry x="140" y="290" width="180" height="90" as="geometry" />
        </mxCell>
        <mxCell id="jOJlzJDerxMGV-HSgP7x-2" value="" style="shape=module;jettyWidth=8;jettyHeight=4;" vertex="1" parent="jOJlzJDerxMGV-HSgP7x-1">
          <mxGeometry x="1" width="20" height="20" relative="1" as="geometry">
            <mxPoint x="-27" y="7" as="offset" />
          </mxGeometry>
        </mxCell>
        <mxCell id="jOJlzJDerxMGV-HSgP7x-9" value="规则SQL组合模块" style="html=1;dropTarget=0;" vertex="1" parent="1">
          <mxGeometry x="400" y="290" width="180" height="90" as="geometry" />
        </mxCell>
        <mxCell id="jOJlzJDerxMGV-HSgP7x-10" value="" style="shape=module;jettyWidth=8;jettyHeight=4;" vertex="1" parent="jOJlzJDerxMGV-HSgP7x-9">
          <mxGeometry x="1" width="20" height="20" relative="1" as="geometry">
            <mxPoint x="-27" y="7" as="offset" />
          </mxGeometry>
        </mxCell>
        <mxCell id="jOJlzJDerxMGV-HSgP7x-13" value="规则引擎执行模块" style="html=1;dropTarget=0;" vertex="1" parent="1">
          <mxGeometry x="140" y="430" width="180" height="90" as="geometry" />
        </mxCell>
        <mxCell id="jOJlzJDerxMGV-HSgP7x-14" value="" style="shape=module;jettyWidth=8;jettyHeight=4;" vertex="1" parent="jOJlzJDerxMGV-HSgP7x-13">
          <mxGeometry x="1" width="20" height="20" relative="1" as="geometry">
            <mxPoint x="-27" y="7" as="offset" />
          </mxGeometry>
        </mxCell>
        <mxCell id="jOJlzJDerxMGV-HSgP7x-15" value="设备规则动作执行模块" style="html=1;dropTarget=0;" vertex="1" parent="1">
          <mxGeometry x="400" y="430" width="180" height="90" as="geometry" />
        </mxCell>
        <mxCell id="jOJlzJDerxMGV-HSgP7x-16" value="" style="shape=module;jettyWidth=8;jettyHeight=4;" vertex="1" parent="jOJlzJDerxMGV-HSgP7x-15">
          <mxGeometry x="1" width="20" height="20" relative="1" as="geometry">
            <mxPoint x="-27" y="7" as="offset" />
          </mxGeometry>
        </mxCell>
        <mxCell id="jOJlzJDerxMGV-HSgP7x-23" value="三方服务规则动作执行模块" style="html=1;dropTarget=0;" vertex="1" parent="1">
          <mxGeometry x="400" y="570" width="180" height="90" as="geometry" />
        </mxCell>
        <mxCell id="jOJlzJDerxMGV-HSgP7x-24" value="" style="shape=module;jettyWidth=8;jettyHeight=4;" vertex="1" parent="jOJlzJDerxMGV-HSgP7x-23">
          <mxGeometry x="1" width="20" height="20" relative="1" as="geometry">
            <mxPoint x="-27" y="7" as="offset" />
          </mxGeometry>
        </mxCell>
        <mxCell id="jOJlzJDerxMGV-HSgP7x-25" value="物模型信息管理模块" style="html=1;dropTarget=0;" vertex="1" parent="1">
          <mxGeometry x="700" y="430" width="180" height="90" as="geometry" />
        </mxCell>
        <mxCell id="jOJlzJDerxMGV-HSgP7x-26" value="" style="shape=module;jettyWidth=8;jettyHeight=4;" vertex="1" parent="jOJlzJDerxMGV-HSgP7x-25">
          <mxGeometry x="1" width="20" height="20" relative="1" as="geometry">
            <mxPoint x="-27" y="7" as="offset" />
          </mxGeometry>
        </mxCell>
        <mxCell id="jOJlzJDerxMGV-HSgP7x-27" value="Kafka消息中间件" style="html=1;dropTarget=0;" vertex="1" parent="1">
          <mxGeometry x="700" y="570" width="180" height="90" as="geometry" />
        </mxCell>
        <mxCell id="jOJlzJDerxMGV-HSgP7x-28" value="" style="shape=module;jettyWidth=8;jettyHeight=4;" vertex="1" parent="jOJlzJDerxMGV-HSgP7x-27">
          <mxGeometry x="1" width="20" height="20" relative="1" as="geometry">
            <mxPoint x="-27" y="7" as="offset" />
          </mxGeometry>
        </mxCell>
      </root>
    </mxGraphModel>
  </diagram>
</mxfile>
